<?xml version="1.0" encoding="utf-8"?>
<!-- Generator: Adobe Illustrator 24.3.0, SVG Export Plug-In . SVG Version: 6.00 Build 0)  -->
<svg version="1.1" id="Layer_1" xmlns="http://www.w3.org/2000/svg" xmlns:xlink="http://www.w3.org/1999/xlink" x="0px" y="0px"
	 viewBox="0 0 928.9 980.9" style="enable-background:new 0 0 928.9 980.9;" xml:space="preserve">
<style type="text/css">
	.st0{display:none;opacity:0.31;}
	.st1{display:inline;opacity:0.21;fill:#D6D6D6;}
	.st2{display:none;}
	.st3{display:inline;fill:url(#SVGID_1_);}
	.st4{display:inline;fill:url(#SVGID_2_);}
	.st5{display:inline;fill:url(#SVGID_3_);}
	.st6{display:inline;fill:url(#SVGID_4_);}
	.st7{display:inline;fill:url(#SVGID_5_);}
	.st8{display:inline;fill:url(#SVGID_6_);}
	.st9{display:inline;fill:url(#SVGID_7_);}
	.st10{display:inline;}
	.st11{fill:#B3B3B3;}
	.st12{fill:#A6120D;}
	.st13{fill:#DD1B16;}
	.st14{fill:#F2F2F2;}
	.st15{fill:url(#SVGID_8_);}
	.st16{fill:url(#SVGID_9_);}
	.st17{fill:url(#SVGID_10_);}
	.st18{fill:url(#SVGID_11_);}
	.st19{fill:#EF9595;}
	.st20{fill:url(#SVGID_12_);}
	.st21{fill:#0A263F;}
	.st22{fill:#0B2D50;}
	.st23{fill:#13416B;}
	.st24{fill:#C3C3C3;}
	.st25{fill:#0B1723;}
	.st26{fill:url(#SVGID_13_);}
	.st27{fill:url(#SVGID_14_);}
	.st28{fill:url(#SVGID_15_);}
	.st29{fill:url(#SVGID_16_);}
	.st30{fill:url(#SVGID_17_);}
	.st31{fill:url(#SVGID_18_);}
	.st32{fill:url(#SVGID_19_);}
	.st33{fill:url(#SVGID_20_);}
	.st34{fill:url(#SVGID_21_);}
	.st35{fill:url(#SVGID_22_);}
	.st36{fill:url(#SVGID_23_);}
	.st37{fill:url(#SVGID_24_);}
	.st38{fill:url(#SVGID_25_);}
	.st39{fill:url(#SVGID_26_);}
	.st40{fill:url(#SVGID_27_);}
	.st41{fill:url(#SVGID_28_);}
	.st42{fill:url(#SVGID_29_);}
	.st43{fill:url(#SVGID_30_);}
	.st44{fill:url(#SVGID_31_);}
	.st45{fill:url(#SVGID_32_);}
	.st46{fill:url(#SVGID_33_);}
	.st47{fill:url(#SVGID_34_);}
	.st48{fill:url(#SVGID_35_);}
	.st49{fill:url(#SVGID_36_);}
	.st50{fill:url(#SVGID_37_);}
	.st51{fill:url(#SVGID_38_);}
	.st52{fill:url(#SVGID_39_);}
	.st53{fill:url(#SVGID_40_);}
	.st54{fill:url(#SVGID_41_);}
	.st55{fill:#FFFFFF;}
	.st56{fill:#2E1C40;}
	.st57{fill:#FEFEFE;}
	.st58{fill:url(#SVGID_42_);}
	.st59{fill:url(#SVGID_43_);}
	.st60{fill:url(#SVGID_44_);}
	.st61{fill:url(#SVGID_45_);}
	.st62{fill:url(#SVGID_46_);}
	.st63{display:none;fill:url(#SVGID_47_);}
	.st64{fill:url(#SVGID_48_);}
	.st65{font-family:'Bayon';}
	.st66{font-size:77.8441px;}
</style>
<g id="shadow" class="st0">
	<ellipse class="st1" cx="449.5" cy="815.5" rx="182.9" ry="35.8"/>
</g>
<g id="shapes" class="st2">
	
		<linearGradient id="SVGID_1_" gradientUnits="userSpaceOnUse" x1="624.03" y1="-157.69" x2="637.78" y2="-157.69" gradientTransform="matrix(1 0 0 1 -43.08 369.09)">
		<stop  offset="0" style="stop-color:#3E2759"/>
		<stop  offset="1" style="stop-color:#2E1C40"/>
	</linearGradient>
	<path class="st3" d="M589.7,220.1l-8.7-2.4c0,0.1-0.1,0.1-0.1,0.1c0,1.9,0,3.9,0,5.8c0,0.1,0.1,0.2,0.2,0.3
		c0.3,0.1,0.6,0.2,0.9,0.3l3.9,1.1l4.4,1.2l2.5,0.7l1.9,0.5v-32.6h-5L589.7,220.1z"/>
	
		<linearGradient id="SVGID_2_" gradientUnits="userSpaceOnUse" x1="642.83" y1="-157.69" x2="657.85" y2="-157.69" gradientTransform="matrix(1 0 0 1 -43.08 369.09)">
		<stop  offset="0" style="stop-color:#3E2759"/>
		<stop  offset="1" style="stop-color:#2E1C40"/>
	</linearGradient>
	<path class="st4" d="M599.8,216.4l8.7-1.5c0,0.1,0,0.1,0,0.2c-0.1,1.4-0.2,2.8-0.3,4.2c0,0.1-0.1,0.3-0.3,0.3
		c-0.5,0.2-1.1,0.3-1.6,0.5l-4.3,1.2l-2.2,0.6v5.8l1.3-0.4l4-1.1l3.9-1.1l3-0.9c0.1,0,0.2-0.1,0.2-0.2c0.1-0.5,0.1-1,0.2-1.5
		c0.1-1.1,0.2-2.2,0.3-3.3c0.2-1.8,0.3-3.5,0.5-5.3c0.1-1.3,0.2-2.6,0.3-3.8c0-0.4,0-0.8,0-1.2l-8.7,1.2v-10h9.1
		c0.3,0,0.5-0.1,0.5-0.4c0-0.9,0.2-1.8,0.2-2.7c0.1-0.6,0.1-1.2,0.2-1.9h-15L599.8,216.4z"/>
	
		<linearGradient id="SVGID_3_" gradientUnits="userSpaceOnUse" x1="570.2318" y1="-162.3284" x2="695.7747" y2="-162.3284" gradientTransform="matrix(1 0 0 1 -43.08 369.09)">
		<stop  offset="0" style="stop-color:#3E2759"/>
		<stop  offset="1" style="stop-color:#2E1C40"/>
	</linearGradient>
	<path class="st5" d="M644.4,176.8c-6.6-10.5-17.6-18.2-29.6-23.1s-24.9-7-34.4-2s-15.7,17.1-25,25.5s-21.6,12.9-26.1,21.1
		s-1.4,20.1,4.4,29.2s14.1,15.5,22.3,20.4c8.2,4.8,16.3,8.1,25.7,11.3s19.9,6.5,30.7,5.2c11.4-1.5,21.8-7.4,29-16.4
		c7.2-9.2,10.6-21.6,11.2-34.5S651,187.3,644.4,176.8z M622.8,187.5c-0.2,1.8-0.3,3.6-0.5,5.3c-0.2,1.6-0.3,3.2-0.5,4.8
		c-0.1,1.1-0.2,2.2-0.3,3.4c-0.2,1.7-0.3,3.4-0.5,5.1c-0.1,1.1-0.2,2.1-0.3,3.2c-0.1,1.7-0.3,3.3-0.4,5c-0.1,1.4-0.2,2.8-0.4,4.1
		s-0.2,2.9-0.4,4.3s-0.2,2.8-0.4,4.2s-0.2,2.8-0.4,4.2c-0.1,1.2-0.2,2.4-0.3,3.6c0,0.5-0.5,0.9-1.2,1.1l-2.5,0.7l-3.9,1.1
		c-1.4,0.4-2.8,0.8-4.2,1.2l-6.4,1.8c-1,0.3-1.9,0.6-2.9,0.8c-0.4,0-0.7,0-1.1-0.1l-6.9-2c-1.7-0.5-3.5-1-5.2-1.5
		c-1.4-0.4-2.8-0.8-4.2-1.2c-1.1-0.3-2.1-0.6-3.2-0.9c-0.6-0.1-1-0.7-1-1.3c-0.2-2-0.4-4-0.6-6c-0.2-1.7-0.3-3.5-0.4-5.2
		s-0.3-3.2-0.5-4.9c-0.1-0.9-0.2-1.9-0.2-2.8c-0.1-1.7-0.3-3.4-0.4-5.1c-0.1-1.4-0.2-2.8-0.4-4.1s-0.3-2.9-0.4-4.3
		c-0.2-2.2-0.4-4.5-0.6-6.8l-0.4-4.3c-0.2-1.8-0.3-3.7-0.5-5.5c-0.1-0.7,0.4-1.4,1.1-1.5c0.1,0,0.2,0,0.3,0c8.1,0,16.2,0,24.2,0
		h24.3c0.3,0,0.7,0.1,1,0.2c0.3,0.2,0.5,0.6,0.5,0.9C622.9,185.8,622.8,186.7,622.8,187.5z"/>
	
		<linearGradient id="SVGID_4_" gradientUnits="userSpaceOnUse" x1="187.04" y1="-17.3" x2="215.46" y2="-17.3" gradientTransform="matrix(1 0 0 1 0 380)">
		<stop  offset="0" style="stop-color:#3E2759"/>
		<stop  offset="1" style="stop-color:#2E1C40"/>
	</linearGradient>
	<polygon class="st6" points="208.2,363.8 207.5,371.1 201.2,372.9 194.9,371.1 194.5,366.6 188.8,366.6 189.6,375.6 201.2,378.8 
		201.3,378.8 201.3,378.8 212.9,375.6 214.5,358.1 193.8,358.1 193.3,352.3 214.9,352.3 215.5,346.6 187,346.6 188.6,363.8 	"/>
	
		<linearGradient id="SVGID_5_" gradientUnits="userSpaceOnUse" x1="180.9615" y1="-13.7657" x2="302.4832" y2="-13.7657" gradientTransform="matrix(1 0 0 1 -43.08 369.09)">
		<stop  offset="0" style="stop-color:#3E2759"/>
		<stop  offset="1" style="stop-color:#2E1C40"/>
	</linearGradient>
	<path class="st7" d="M229,299.8c-10.5-0.4-22.2,8.2-31.5,13.6s-15.9,7.6-25,10.5s-20.6,6.2-27.5,13.9s-9.1,19.7-5.2,29.1
		s14.1,16.3,23.1,23.5s16.9,14.6,26.6,18.1s21.3,3.2,30.4-1.5s15.9-13.8,22.5-23s13.2-18.7,15.7-29.6c2.5-11.6,0.9-23.6-4.4-34.2
		C248.6,309.4,239.4,300.1,229,299.8z M219.8,383.8l-18.6,6.2l-18.4-6.2l-4.1-46.6H224L219.8,383.8z"/>
	
		<linearGradient id="SVGID_6_" gradientUnits="userSpaceOnUse" x1="322.3" y1="-200.7" x2="356.14" y2="-200.7" gradientTransform="matrix(1 0 0 1 0 380)">
		<stop  offset="0" style="stop-color:#3E2759"/>
		<stop  offset="1" style="stop-color:#2E1C40"/>
	</linearGradient>
	<polygon class="st8" points="340.3,166.8 339.4,167.2 323.7,173.8 324.2,180.3 324.2,180.2 324.2,180.3 347.5,180.3 347,189 
		339.3,191.1 332,189.3 331.5,183.9 324.7,183.9 325.6,194.3 339.4,198.4 353.1,194.3 354.9,173.8 339.3,173.8 339.4,173.8 
		355.5,166.8 356.1,160.2 322.3,160.2 323.1,166.8 	"/>
	
		<linearGradient id="SVGID_7_" gradientUnits="userSpaceOnUse" x1="320.1974" y1="-198.7764" x2="444.4054" y2="-198.7764" gradientTransform="matrix(1 0 0 1 -43.08 369.09)">
		<stop  offset="0" style="stop-color:#3E2759"/>
		<stop  offset="1" style="stop-color:#2E1C40"/>
	</linearGradient>
	<path class="st9" d="M367.5,125.6c-6.9-8.5-17.2-15.7-26.8-14.6c-9.5,1.2-18.4,10.7-29.7,17.2s-25.1,9.9-30.7,18.2
		s-2.8,21.5,0.7,33.4s7.7,22.6,15.2,29.6s18.2,10.3,29.2,14.1s22.1,8.2,31,5.3s15.3-13.1,24.2-22c8.9-8.9,20.2-16.5,20.7-25.1
		c0.6-8.7-9.6-18.5-16.4-28.2C378,143.8,374.4,134.1,367.5,125.6z M361.2,204.5l-22,7.3l-22-7.3l-4.9-55.5H366L361.2,204.5z"/>
	<g id="Angular" class="st10">
		<path class="st11" d="M703.9,311.9L649.6,331l8.6,71.1l45.7,25.1l46-25.5l8.6-71.1L703.9,311.9z"/>
		<path class="st12" d="M753.1,334.8L703.8,318v103.2l41.3-22.9L753.1,334.8L753.1,334.8z"/>
		<path class="st13" d="M655.7,335.1l7.3,63.6l40.7,22.6V318L655.7,335.1L655.7,335.1z"/>
		<path class="st14" d="M717.3,372.9l-13.6,6.3h-14.3l-6.7,16.8l-12.5,0.2l33.5-74.6L717.3,372.9L717.3,372.9z M716,369.7
			l-12.2-24.1l-10,23.7h9.9L716,369.7L716,369.7z"/>
		<path class="st11" d="M703.8,321.7l0.1,23.9l11.3,23.7h-11.4v9.9h15.8l7.4,17.1l12,0.2L703.8,321.7L703.8,321.7z"/>
	</g>
</g>
<g id="person">
	
		<linearGradient id="SVGID_8_" gradientUnits="userSpaceOnUse" x1="268.501" y1="195.6599" x2="426.88" y2="195.6599" gradientTransform="matrix(1 0 0 1 -43.08 369.09)">
		<stop  offset="0" style="stop-color:#EFC5C5"/>
		<stop  offset="1" style="stop-color:#F2ACAC"/>
	</linearGradient>
	<path class="st15" d="M383.8,527.8l-34-18.1l-8.7,42.7c-6.9,6.5-18.6,11.2-28.6,18.1c-11.8,8.1-20.3,16-29.6,20.8
		c-5.7-2.4-11-5.5-15.8-9.3c-1-0.6-2.2-0.7-3.2-0.2c-6.8,4-13.8,7.5-18.7,14c-1.4,1.8-1.7,3.1-0.6,5l1.6,2.7
		c-6.8-3.4-16.5-5.8-19.4-3.4c-1.6,1.3-2.1,2.6,0.1,3.8c4,2.1,10,5.1,16,8.1c-0.4,0.1-0.8,0.2-1.1,0.4c-2.5,1.1-4.8,2.5-5.8,5.2
		c-0.6,1.6-0.1,2.2,1.5,2.2c6.6-0.2,13.2-0.5,20.2-0.8l-0.2-0.1c0.4,0,0.7,0,1.1-0.1l11.5-1.1v-0.2h0.3c2.6-0.1,5.3-0.1,8-0.4
		c1.9-0.2,7.1-2.7,11.2-6.8c0.6-0.6,1.3-1.3,1.8-2c0.1-0.1,0.1-0.2,0.2-0.2c0.1-0.1,0.1-0.2,0.2-0.3c12.4-0.8,24.7-3.3,36.5-7.4
		l0.4-0.2c21.9-7.7,39.4-24.5,47.9-46.2c0.4-1.1,0.8-2.2,1.2-3.3c2.5-6.9,4.5-14,6-21.2V527.8L383.8,527.8z M271.1,602.7
		c-1.2,0.4-2.4,0.6-3.6,1c-7,2-7,2-11.5-4.2c3.1-2.8,6.2-5.6,9-8.1c1.8,1.7,4.6,4.2,7.1,6.8c0.8,0.8,1.4,1.9,1.5,3
		C273.6,601.7,272,602.3,271.1,602.7z"/>
	
		<linearGradient id="SVGID_9_" gradientUnits="userSpaceOnUse" x1="561.25" y1="194.2646" x2="716.6377" y2="194.2646" gradientTransform="matrix(1 0 0 1 -43.08 369.09)">
		<stop  offset="0" style="stop-color:#EFC5C5"/>
		<stop  offset="1" style="stop-color:#F2ACAC"/>
	</linearGradient>
	<path class="st16" d="M672.1,597.1c-2.9-2.4-12.6,0-19.4,3.4l1.6-2.7c1.2-2,0.9-3.2-0.6-5c-5-6.4-12-10-18.8-14
		c-1-0.4-2.2-0.3-3.2,0.2c-5.2,4.1-10.9,7.4-17.1,9.8c-7.8-4.8-15.5-11.6-25.5-18.5s-21.7-11.6-28.6-18.1l-8.7-42.5l-33.7,18
		l-0.1-0.1c0,0.6,0,1.2,0,1.8s0,1.2,0,1.8c1.5,6.7,3.4,13.3,5.8,19.7c0.4,1.1,0.8,2.2,1.2,3.3c8.5,21.6,26,38.5,47.9,46.2l0.4,0.1
		c7,2.4,14.1,4.3,21.4,5.5c1.7,0,3.5,0,5.3,0.1s3.7,0.2,5.3,0.4l0,0c1.4,0.1,2.8,0.6,4,1.3c4,3.9,9,6.3,10.8,6.5
		c2.7,0.3,8.3,0.5,8.3,0.5c0.8,0.1,1.7,0.2,2.5,0.2l9,0.8c0.9,0.1,15.3,0.9,21.9,1.2c1.7,0.1,2.1-0.6,1.5-2.2
		c-1-2.8-3.3-4.1-5.8-5.2c-0.6-0.3-1.3-0.5-2-0.6c6-3,12.1-6,16.1-8.1C674.2,599.7,673.6,598.5,672.1,597.1z M631.4,600.7
		c-1.2-0.3-2.4-0.5-3.6-1c-1-0.4-2.5-1-2.5-1.5c0.1-1.1,0.7-2.2,1.5-3c2.6-2.6,5.3-5,7.1-6.8l9,8.1
		C638.3,602.7,638.3,602.7,631.4,600.7z"/>
	
		<linearGradient id="SVGID_10_" gradientUnits="userSpaceOnUse" x1="447.1517" y1="-11.54" x2="541.1212" y2="-11.54" gradientTransform="matrix(1 0 0 1 -43.08 369.09)">
		<stop  offset="0" style="stop-color:#EFC5C5"/>
		<stop  offset="1" style="stop-color:#F2ACAC"/>
	</linearGradient>
	<path class="st17" d="M497.7,358.7c-0.5-3.9-2.7-7.1-5.6-8c-2.3-0.7-4.8-0.1-6.6,1.4c-2-24.5-17.4-43.6-36-43.6
		c-19,0-34.7,19.9-36.1,45.2c-2.5-0.8-5.3-0.1-7.1,1.8c-2,2.1-2.1,4.9-2.2,7.1c-0.1,1.5-0.2,8.5,4.7,13.5c2.3,2.4,5.3,3.8,8.6,4.1
		c3.2,8.4,8.3,15.5,14.4,20.1l0.8,0.6c4.9,3.7,10.9,5.7,17,5.7c7.4,0,14.3-3,20-8.1l0,0c5.6-5.2,9.9-11.8,12.4-19
		c4.6,0.1,9-1.8,12-5.3C499.4,367.9,497.9,359.4,497.7,358.7z M415.2,366.4c-0.6,1.3-1.5,1.1-2,2.1c-0.9,2.1,1.5,4.6,1,5.3
		s-3.1-0.9-4.8-3.2c-1.4-1.8-2.1-4.1-2-6.3c0-1.1,0.3-2.2,1-3.2c1.2-1.4,3.2-1.9,4.8-1.1c0.9,0.5,1.5,1.2,2,2.1
		C415.8,363.6,415.8,365.1,415.2,366.4z M492.2,369c-1.8,2.3-4.7,3.7-5.3,3.2s2.1-3.2,1.1-5.3c-0.5-1.1-1.4-0.8-2.1-2.1
		c-0.7-1.3-0.7-2.9,0-4.2c0.4-0.9,1.2-1.7,2.1-2.1c1.8-0.8,3.9-0.4,5.3,1c0.7,0.9,1.1,2,1.1,3.2C494.4,364.9,493.7,367.2,492.2,369
		L492.2,369z"/>
	
		<linearGradient id="SVGID_11_" gradientUnits="userSpaceOnUse" x1="467.45" y1="54.01" x2="520.84" y2="54.01" gradientTransform="matrix(1 0 0 1 -43.08 369.09)">
		<stop  offset="0" style="stop-color:#EFC5C5"/>
		<stop  offset="1" style="stop-color:#F2ACAC"/>
	</linearGradient>
	<path class="st18" d="M477.8,429.1L477.8,429.1c-2.3,2.6-4.8,4.8-7.6,6.6c-5.5,3.7-12,5.7-18.6,5.8h-1
		c-15.3-0.1-24.9-10.8-26.2-12.4l-0.1-0.1c4.2-6.9,6.9-14.6,7.8-22.7c12,6,26.2,5.4,37.6-1.6c0.2,2.7,0.7,5.4,1.3,8.1
		C472.5,418.6,474.7,424.1,477.8,429.1z"/>
	<path class="st19" d="M413.3,360.1c-1.7-0.8-3.7-0.4-4.9,1.1c-0.7,0.9-1,2-1,3.2c-0.1,2.3,0.6,4.5,2,6.3c1.7,2.3,4.3,3.7,4.9,3.2
		s-1.9-3.2-1-5.3c0.5-1.1,1.3-0.8,2-2.1c0.6-1.3,0.6-2.9,0-4.2C414.8,361.3,414.1,360.6,413.3,360.1z"/>
	<path class="st19" d="M493.3,359.5c-1.4-1.4-3.5-1.9-5.3-1c-0.9,0.4-1.7,1.2-2.1,2.1c-0.7,1.3-0.7,2.9,0,4.2c0.7,1.3,1.6,1,2.1,2.1
		c1,2.1-1.7,4.7-1.1,5.3s3.4-0.9,5.3-3.2c1.5-1.8,2.2-4,2.1-6.3C494.3,361.5,494,360.4,493.3,359.5z"/>
	<path class="st19" d="M469.8,404.8c-11.4,7-25.6,7.7-37.6,1.6c0.2-1.9,0.4-3.8,0.4-5.4c4.9,3.7,10.9,5.7,17,5.7
		c7.4,0,14.2-3,20-8.1h0.1C469.6,400.6,469.6,402.7,469.8,404.8z"/>
	
		<linearGradient id="SVGID_12_" gradientUnits="userSpaceOnUse" x1="334.58" y1="281.9598" x2="648.68" y2="281.9598" gradientTransform="matrix(1 0 0 1 -43.08 369.09)">
		<stop  offset="0" style="stop-color:#4F3470"/>
		<stop  offset="1" style="stop-color:#412859"/>
	</linearGradient>
	<path class="st20" d="M605.6,606.4l-1.5,0.2c-0.5,0.1-1,0.2-1.6,0.3l-0.3,0.1l0,0l-0.9,0.2c-1.2,0.3-2.2,0.6-3.3,1
		c-0.2,0.1-0.5,0.2-0.7,0.2c-0.5,0.2-1,0.4-1.5,0.6s-0.8,0.3-1.2,0.5c-0.6,0.2-1.1,0.5-1.6,0.8l-0.5,0.2l-0.2,0.1l-0.1,0.1h-0.1
		l-2.7,1.8l-2.7,1.8c-1.8,1.2-3.6,2.4-5.4,3.5c-2.5,1.7-5,3.3-7.6,4.9c-2.6,1.7-5.3,3.4-8,5.1c-5.3,3.4-10.7,6.9-16.2,10.3
		c-1.4,0.9-2.7,1.7-4.1,2.6s-2.7,1.7-4.1,2.6c-3.4,2.2-6.9,4.3-10.4,6.4c-2.1,1.3-4.2,2.6-6.3,3.8c-4.2,2.6-8.5,5.1-12.7,7.7
		c-2.9,1.7-5.7,3.4-8.6,5.1l-4.3,2.5c-1.4,0.8-2.8,1.7-4.3,2.5c-3.8,2.2-7.6,4.4-11.3,6.6c-5.6,3.3-11.3,6.5-16.8,9.6v-0.1l0,0
		l-0.1,0.1l0,0l0,0h-0.1l-0.2,0.1h-0.1l0,0l0,0l0,0l-0.5,0.2l-0.3,0.2l-0.5,0.2l-0.5,0.3l0,0l-0.5,0.3h-0.1l-0.3,0.1
		c-0.1,0-0.1,0.1-0.2,0.1c-0.6,0.3-1.4,0.7-2.2,1.1l-0.4,0.2c0,0-0.1,0-0.1,0.1c-0.6,0.3-1.3,0.7-2.1,1.1c-0.2,0.1-0.4,0.2-0.7,0.3
		l-1.4,0.7l-0.8,0.4l-1,0.5l-1.3,0.7l-0.8,0.5c-0.9,0.5-1.8,1-2.7,1.5l0,0c-0.8,0-1.5,0-2.2,0l0,0L445,695l0,0h-0.1h-0.1l-0.1-0.1
		l-0.4-0.2l-0.6-0.3l-0.6-0.3l-0.4-0.2l-0.4-0.2c-0.3-0.1-0.5-0.2-0.7-0.4l-1.8-0.9l-0.3-0.2l-0.4-0.2l0,0l0,0l-15.8-8.6
		c-0.1-0.1-0.2-0.1-0.2-0.2c-10.9-6.3-22-12.8-33.1-19.5c-28.1-16.8-54.8-33.7-80.1-50.5c-3.3-1.7-6.8-3-10.5-3.8
		c-0.5-0.1-1-0.2-1.6-0.3c-2.1-0.4-4.2-0.6-6.3-0.7c0.1-0.1,0.1-0.2,0.2-0.2c4.4-0.2,9.8-0.3,15.9-0.2c6.9,0.2,17.5,0.8,42,4.8
		c13.5,2.2,22.8,4,26.7,4.8l3.1,0.5c25.2,4.5,46.8,4.3,75.1,4.2c31.7-0.2,48.7-0.2,68.6-3.8c1.6-0.3,3.2-0.6,4.8-0.9
		c13.3-2.7,26.8-4.8,40.1-7.6c8-1.9,16.4-3.8,27-4c1.7,0,3.5,0,5.3,0.1S603.9,606.3,605.6,606.4z"/>
	<path class="st21" d="M447.5,696.4H447l-7.9-4.3l0.4,0.2l0.4,0.2l1.8,0.9c0.2,0.1,0.5,0.2,0.7,0.4l0.4,0.2l0.4,0.2l0.6,0.3l0.6,0.3
		l0.4,0.2l0.2,0.1l0.2,0.1l0.2,0.1L447.5,696.4z"/>
	<path class="st21" d="M466.2,687.8L466.2,687.8L466.2,687.8L466.2,687.8L466.2,687.8z"/>
	<path class="st22" d="M493.9,701.1L493.9,701.1C493.9,701.2,493.9,701.1,493.9,701.1L493.9,701.1z"/>
	<path class="st22" d="M472.2,705.1c-0.2-0.8-0.3-1.5-0.5-2.1C471.9,703.7,472.1,704.4,472.2,705.1z"/>
	<path class="st22" d="M470.2,699.3c0,0.1,0.1,0.2,0.1,0.3L470.2,699.3L470.2,699.3z"/>
	<path class="st22" d="M509.5,692.1h1.1C510.3,692.1,509.9,692.1,509.5,692.1c-1.5,0.1-3,0.2-4.4,0.3
		C506.5,692.2,508,692.1,509.5,692.1z"/>
	<path class="st22" d="M523.5,693.1c0.9,0.2,1.7,0.3,2.5,0.5C525.2,693.4,524.4,693.3,523.5,693.1c-0.9-0.1-1.7-0.3-2.6-0.4
		c-0.5-0.1-1-0.1-1.6-0.2c0.5,0,1,0.1,1.6,0.2C521.8,692.8,522.7,693,523.5,693.1z"/>
	<path class="st22" d="M531.5,695.1L531.5,695.1L531.5,695.1l-1.1-0.3L531.5,695.1z"/>
	<path class="st22" d="M531.9,695.2l0.2,0.1L531.9,695.2l-0.2-0.1L531.9,695.2z"/>
	<path class="st22" d="M534.9,696.4l-0.3-0.1l0,0L534.9,696.4z"/>
	<path class="st23" d="M397.9,709.9c-0.3,1.6-0.6,3.2-0.9,4.8c-0.2,0.9,0,2-0.4,2.7s-1.4,1-2.3,1.4c0.1,0.3,0.3,0.7,0.4,1.1
		c0.3,0.8,0.1,1.6-0.5,2.2c-0.7,0.5-1.6,0.4-2.2-0.2c-1.4-1.3-2.4-3-2.8-4.8c-0.5-3.3-0.8-6.6-0.9-9.9v-0.1c1.4,0.4,2.7,0.8,4.1,1.2
		c-0.1,2.2,0.1,4.4,0.5,6.6c0.1,0.4,0.2,0.7,0.5,1c0-0.3,0.1-0.6,0.1-0.9c0.2-2,0.5-4.1,1-6.1l0,0
		C395.6,709.2,396.7,709.6,397.9,709.9z"/>
	<path class="st23" d="M405.2,717.9c0.1,0.7-0.2,1.4-0.9,1.7c-0.6,0.4-1.5,0.2-1.9-0.4c-0.8-1.1-1.5-2.3-2-3.5
		c-0.5-1.8-0.9-3.6-1.2-5.4c1.4,0.4,2.8,0.8,4.2,1.2l0,0c0.3,1.6,0.8,3.3,1.4,4.8C405,716.8,405.1,717.4,405.2,717.9z"/>
	<path class="st23" d="M412.2,719.6c-0.6,0.4-1.5,0.2-1.9-0.4c-0.5-0.7-1-1.5-1.3-2.4c-0.1-0.6-0.7-1.1-1.4-1
		c-0.7,0-1.4-0.1-2.2-0.1c0-1.2,0.1-2.4,0.2-3.6l0,0c2,0.6,4.1,1.1,6.2,1.7l0,0c0.2,1.1,0.5,2.2,0.8,3.3c0.1,0.3,0.1,0.5,0.2,0.8
		C413.1,718.6,412.8,719.3,412.2,719.6z"/>
	<path class="st23" d="M419,718c-1.1-0.2-2.1-0.4-3.1-0.7c-0.2-0.1-0.4-0.5-0.5-0.9c-0.1-0.6-0.2-1.2-0.3-1.8l2.4,0.6l1.4,0.4
		c0,0.5,0.1,0.9,0.1,1.4C419.1,717.3,419.1,717.7,419,718z"/>
	<path class="st24" d="M449.6,696.5l-0.8,0.5l0,0c-0.4-0.2-0.7-0.4-1-0.6c0.5,0,1,0,1.6,0C449.4,696.5,449.5,696.5,449.6,696.5z"/>
	<path class="st24" d="M537.6,725.9c-2.7,1.3-6.8,2.9-16.7,3.7c-3.4,0.3-7.5,0.4-12.5,0.5c-7.6,0-27.4-0.2-55.6-5.6
		c-3.4-0.7-6.2-1.2-8-1.6c-25.9,4.7-44.2,4.9-51.4,4.9c-5,0-9.1-0.2-12.5-0.5c-9.9-0.8-14-2.4-16.7-3.7s-17.2-8.3-16.7-17.7
		c0.2-4.1,3.2-7.5,6.7-10.1c2,0.8,4.1,1.5,6.1,2.2c-0.2,0.1-0.3,0.3-0.5,0.4c-0.2,0.1-0.6,0.5-0.8,0.7c-0.2,0.2-0.4,0.4-0.6,0.6
		c-0.3,0.3-0.6,0.6-0.9,0.9c-0.1,0.1-0.2,0.2-0.3,0.3c-0.2,0.3-0.4,0.6-0.6,0.9c-0.1,0.2-0.2,0.4-0.3,0.5c-0.1,0.2-0.2,0.4-0.3,0.6
		c-0.1,0.2-0.2,0.4-0.3,0.6c-0.1,0.2-0.2,0.4-0.2,0.6c-0.1,0.2-0.1,0.4-0.2,0.6c0,0.2-0.1,0.4-0.1,0.6c0,0.2,0,0.5-0.1,0.7
		c-0.5,8.2,12.8,14.3,15.3,15.4c3.3,1.5,6.8,2.4,10.4,2.8c1,0.1,2,0.3,3.2,0.4l1.2,0.1l0,0c3.2,0.3,7.1,0.4,11.9,0.4
		c13.3,0,26.6-1,39.7-3l0,0h0.3h0.2h0.1h0.2l0.7-0.1h0.3c0.4,0,0.8-0.1,1.3-0.2l2-0.3l0,0l0.8,0.2l1,0.2l0.8,0.1
		c0.2,0,0.4,0,0.6,0.1l1,0.1h0.1l1.9,0.2l0,0l0.7,0.1c0.4,0,0.7,0.1,1.1,0.1l3.7,0.4h0.4h0.4c0.2,0,0.4,0.1,0.6,0.1s0.6,0.1,0.9,0.1
		h0.5h0.4l0.4,0.1c0.1,0,0.2,0,0.4,0h0.1l0,0h0.1h0.1c2.3,0.4,4.5,0.8,6.8,0.9l0,0c2.9,0.4,5.7,0.8,8.3,1.1l1.6,0.2
		c6.9,0.8,12.8,1.2,17.6,1.5l1.5,0.1l1.4,0.1h0.3h1.7c0.9,0,1.8,0.1,2.6,0.1h3.8h1c1.5,0,2.8,0,4.2-0.1h1c0.6,0,1.3,0,1.8-0.1h0.9
		l2.2-0.1l1.3-0.1h0.6c1.2-0.1,2.4-0.2,3.4-0.3l1-0.1c3.6-0.3,7.1-1.3,10.4-2.7l0.3-0.2l0,0h0.1h0.1h0.1c0.1,0,0.1,0,0.2-0.1h0.1
		l0.2-0.1l0.3-0.1h0.1l0.2-0.1l0,0l0,0h0.1l0.2-0.1l0.3-0.2l0.3-0.2l0,0c0.2-0.1,0.4-0.2,0.7-0.3c0.5-0.3,1-0.5,1.5-0.8l0.9-0.5
		c0.6-0.3,1.1-0.7,1.7-1.1c1.5-1,2.8-2.1,4.1-3.3c2.2-2.2,3.9-4.8,3.9-7.6c0-0.2,0-0.3,0-0.5s0-0.3,0-0.5c0-0.1,0-0.1,0-0.2v-0.1
		v-0.2c0-0.1,0-0.1,0-0.2s-0.1-0.3-0.1-0.5v-0.1c-0.1-0.2-0.1-0.4-0.2-0.6c-0.2-0.4-0.3-0.8-0.6-1.2c-0.1-0.2-0.2-0.4-0.3-0.6
		l-0.1-0.1l-0.3-0.4c-0.1-0.2-0.3-0.4-0.4-0.5s-0.3-0.3-0.4-0.5l-0.1-0.1c-0.1-0.2-0.3-0.3-0.4-0.4c-0.1-0.1-0.2-0.2-0.3-0.3
		l-0.2-0.2c-0.2-0.2-0.3-0.3-0.5-0.5l0,0c-0.2-0.2-0.3-0.3-0.5-0.4c-0.3-0.3-0.7-0.6-1.1-0.8c-0.2-0.2-0.4-0.3-0.6-0.5h-0.1
		l-0.5-0.3c-0.8-0.5-1.5-1-2.3-1.3l-0.4-0.2l-0.1-0.1l-0.2-0.1l0,0l0,0c-0.5-0.3-1.1-0.5-1.6-0.8l-0.2-0.1l0,0l-0.3-0.1
		c-0.5-0.2-1-0.4-1.5-0.6l-0.5-0.2l-0.2-0.1l-0.2-0.1l-0.2-0.1h-0.1h-0.1l-1.1-0.3c-1.1-0.3-2.3-0.6-3.6-1l-0.8-0.2
		c-0.8-0.2-1.6-0.3-2.5-0.5s-1.7-0.3-2.6-0.4c-0.5-0.1-1-0.1-1.6-0.2s-1.1-0.1-1.6-0.2h-0.2c-0.7-0.1-1.3-0.1-2-0.2h-0.3
		c-1.5-0.1-3-0.1-4.6-0.1h-1.1c-1.5,0-3,0.2-4.4,0.3l-1.1,0.1c-0.7,0.1-1.3,0.2-2,0.3l-1,0.2l-1.1,0.2c-0.7,0.1-1.3,0.3-2,0.4
		c-4.7,1.1-9.4,2.5-16.2,3.9c-1.5,0.3-3.3,0.6-5.3,1l-1.1,0.2l-0.8,0.1l-1.8,0.2l-0.9,0.1l-1.8,0.2l0,0c-0.6,0.1-1.2,0.1-1.7,0.2
		h-0.5c0-0.2-0.1-0.5-0.1-0.7s-0.1-0.5-0.1-0.7c3-0.3,5.8-0.6,8.3-1l1.3-0.2c1-0.2,2-0.3,3-0.5l1.7-0.3l0,0c0.5-0.1,1.1-0.2,1.6-0.3
		c0.3,0,0.5-0.1,0.8-0.2c0.5-0.1,1.1-0.2,1.6-0.3l1.5-0.3c0.5-0.1,1-0.2,1.4-0.3l0.7-0.2l0.8-0.2l0.9-0.2l1-0.3
		c1-0.2,1.9-0.5,2.8-0.8l1.8-0.5l2-0.5c0.7-0.2,1.3-0.3,2-0.5c0.1,0,0.1,0,0.2,0l1.7-0.4h0.2c0.3-0.1,0.6-0.2,1-0.2
		c0.7-0.2,1.5-0.3,2.3-0.4l1.3-0.2c0.7-0.1,1.5-0.2,2.2-0.3h0.5l0.9-0.1c0.9-0.1,1.8-0.1,2.7-0.2s1.6,0,2.4,0c0.6,0,1.2,0,1.7,0h0.2
		c0.5,0,1.1,0,1.6,0.1h-0.1l1,0.1l1.2,0.1c0.8,0.1,1.5,0.1,2.2,0.2c0.4,0,0.7,0.1,1.1,0.2s0.7,0.1,1.1,0.2l1,0.2
		c0.4,0.1,0.8,0.1,1.1,0.2c2.6,0.5,5,1.1,7,1.7c0.6,0.2,1.2,0.4,1.8,0.5l0.8,0.3c1.5,0.5,2.9,1.1,4.3,1.9l0,0
		c5,2.6,11.3,7.2,11.6,13.2C554.8,717.5,540.3,724.6,537.6,725.9z"/>
	<path class="st24" d="M361.1,697.3l-0.7,0.6l0,0l-0.5,0.4c0.2-0.2,0.3-0.3,0.5-0.4C360.6,697.7,360.9,697.4,361.1,697.3z"/>
	<path class="st24" d="M446.2,721.9l-1-0.1c-0.2,0-0.4-0.1-0.6-0.1l-0.8-0.1c0-0.1-0.1-0.1-0.1-0.2l0,0l0,0L446.2,721.9z"/>
	<path class="st25" d="M397.9,709.9c-0.3,1.6-0.6,3.2-0.9,4.8c-0.2,0.9,0,2-0.4,2.7s-1.4,1-2.3,1.4c0.1,0.3,0.3,0.7,0.4,1.1
		c0.3,0.8,0.1,1.6-0.5,2.2c-0.7,0.5-1.6,0.4-2.2-0.2c-1.4-1.3-2.4-3-2.8-4.8c-0.5-3.3-0.8-6.6-0.9-9.9v-0.1c1.4,0.4,2.7,0.8,4.1,1.2
		c-0.1,2.2,0.1,4.4,0.5,6.6c0.1,0.4,0.2,0.7,0.5,1c0-0.3,0.1-0.6,0.1-0.9c0.2-2,0.5-4.1,1-6.1l0,0
		C395.6,709.2,396.7,709.6,397.9,709.9z"/>
	<path class="st25" d="M405.2,717.9c0.1,0.7-0.2,1.4-0.9,1.7c-0.6,0.4-1.5,0.2-1.9-0.4c-0.8-1.1-1.5-2.3-2-3.5
		c-0.5-1.8-0.9-3.6-1.2-5.4c1.4,0.4,2.8,0.8,4.2,1.2l0,0c0.3,1.6,0.8,3.3,1.4,4.8C405,716.8,405.1,717.4,405.2,717.9z"/>
	<path class="st25" d="M412.2,719.6c-0.6,0.4-1.5,0.2-1.9-0.4c-0.5-0.7-1-1.5-1.3-2.4c-0.1-0.6-0.7-1.1-1.4-1
		c-0.7,0-1.4-0.1-2.2-0.1c0-1.2,0.1-2.4,0.2-3.6l0,0c2,0.6,4.1,1.1,6.2,1.7l0,0c0.2,1.1,0.5,2.2,0.8,3.3c0.1,0.3,0.1,0.5,0.2,0.8
		C413.1,718.6,412.8,719.3,412.2,719.6z"/>
	<path class="st25" d="M419,718c-1.1-0.2-2.1-0.4-3.1-0.7c-0.2-0.1-0.4-0.5-0.5-0.9c-0.1-0.6-0.2-1.2-0.3-1.8l2.4,0.6l1.4,0.4
		c0,0.5,0.1,0.9,0.1,1.4C419.1,717.3,419.1,717.7,419,718z"/>
	<path class="st24" d="M443.6,721.4L443.6,721.4L443.6,721.4c0,0.1,0.1,0.1,0.1,0.2l0.8,0.1c0.2,0,0.4,0,0.6,0.1l1,0.1L443.6,721.4z
		"/>
	<path class="st24" d="M508.7,727.3c-1.3,0-2.7,0-4.2,0.1l0,0C506,727.3,507.4,727.3,508.7,727.3z"/>
	<path class="st24" d="M531.7,723.6l-0.3,0.2c-3.3,1.5-6.8,2.4-10.4,2.7l-1,0.1l1-0.1c3.6-0.3,7.1-1.3,10.4-2.7l0.2-0.1L531.7,723.6
		z"/>
	<path class="st24" d="M531.7,723.6L531.7,723.6z"/>
	<path class="st24" d="M531.9,723.5L531.9,723.5L531.9,723.5L531.9,723.5z"/>
	<path class="st24" d="M532.2,723.3C532.2,723.3,532.1,723.3,532.2,723.3L532.2,723.3L532.2,723.3z"/>
	<path class="st24" d="M532.7,723.1L532.7,723.1L532.7,723.1L532.7,723.1z"/>
	<path class="st24" d="M532.9,723L532.9,723L532.9,723z"/>
	<path class="st24" d="M533.5,722.7l-0.3,0.2l0,0L533.5,722.7z"/>
	<path class="st24" d="M533.8,722.5L533.8,722.5L533.8,722.5z"/>
	<path class="st24" d="M536.7,697.3l-0.2-0.1l0,0L536.7,697.3z"/>
	<path class="st24" d="M538.6,719.7c-0.6,0.4-1.1,0.8-1.7,1.1C537.5,720.4,538,720.1,538.6,719.7z"/>
	<path class="st25" d="M470.2,699.3L470.2,699.3l0.1,0.3C470.3,699.5,470.2,699.4,470.2,699.3z M471.7,703c0.2,0.7,0.4,1.4,0.5,2.1
		C472.1,704.4,471.9,703.7,471.7,703z M504.6,727.4L504.6,727.4c1.5,0,2.8,0,4.2-0.1C507.4,727.3,506,727.3,504.6,727.4z
		 M519.9,726.6l1-0.1l0,0L519.9,726.6z"/>
	<path class="st25" d="M493.9,701.1L493.9,701.1C493.9,701.2,493.9,701.1,493.9,701.1L493.9,701.1z"/>
	
		<linearGradient id="SVGID_13_" gradientUnits="userSpaceOnUse" x1="384.18" y1="156.7748" x2="604.44" y2="156.7748" gradientTransform="matrix(1 0 0 1 -43.08 369.09)">
		<stop  offset="0" style="stop-color:#F2F2F2"/>
		<stop  offset="1" style="stop-color:#E0E0E0"/>
	</linearGradient>
	<path class="st26" d="M518.3,527.8L518.3,527.8c-0.1,0.5-0.1,1.1-0.1,1.7s0,1.2,0,1.8c0,3,0,6,0.1,9c0.5,28,2.2,54.1,4.7,78.3
		c-19.9,3.6-36.9,3.7-68.6,3.8c-28.4,0.1-49.9,0.2-75.1-4.2c2.5-24.1,4.2-50.1,4.7-77.9c0.1-3.5,0.1-7,0.1-10.5c0-0.7,0-1.4,0-2
		l-0.1,0.1l-34-18.1l-8.9-4.8c3.5-12.1,8.7-23.6,15.2-34.3c3.1-5,6.5-9.9,10.2-14.5c7.8-9.8,18.4-16.9,30.5-20.4
		c9.1-2.7,18.3-4.8,27.7-6.5c1.3,1.6,10.8,12.2,26.2,12.4h1c6.6-0.1,13.1-2.1,18.6-5.8c2.8-1.8,5.4-4,7.6-6.6
		c9.3,1.7,18.6,3.9,27.7,6.5c12,3.5,22.6,10.6,30.5,20.4c3.7,4.6,7,9.4,10.1,14.5c6.6,10.7,11.7,22.3,15.3,34.3l-9.2,4.9
		L518.3,527.8z"/>
	
		<linearGradient id="SVGID_14_" gradientUnits="userSpaceOnUse" x1="398.2663" y1="341.66" x2="423.9401" y2="341.66" gradientTransform="matrix(1 0 0 1 -43.08 369.09)">
		<stop  offset="0" style="stop-color:#F2F2F2"/>
		<stop  offset="1" style="stop-color:#E0E0E0"/>
	</linearGradient>
	<path class="st27" d="M380.9,704.7v19.4c-3.6-0.3-7.1-1.3-10.4-2.7c-2.5-1.2-15.8-7.3-15.3-15.4c0-0.2,0-0.5,0.1-0.7
		c0-0.2,0.1-0.4,0.1-0.6c0-0.2,0.1-0.4,0.2-0.6c0.1-0.2,0.1-0.4,0.2-0.6c0.1-0.2,0.2-0.4,0.3-0.6c0.1-0.2,0.2-0.4,0.3-0.6
		c0.1-0.2,0.2-0.4,0.3-0.5c0.2-0.3,0.4-0.6,0.6-0.9c0.1-0.1,0.2-0.2,0.3-0.3c0.3-0.3,0.5-0.6,0.8-0.9c0.2-0.2,0.4-0.4,0.6-0.6
		c0.3-0.2,0.5-0.5,0.8-0.7s0.3-0.3,0.5-0.4c0.2-0.1,0.5-0.4,0.8-0.6l-0.7,0.6C367,700.2,373.9,702.5,380.9,704.7z"/>
	
		<linearGradient id="SVGID_15_" gradientUnits="userSpaceOnUse" x1="431.4075" y1="345.6701" x2="440.94" y2="345.6701" gradientTransform="matrix(1 0 0 1 -43.08 369.09)">
		<stop  offset="0" style="stop-color:#F2F2F2"/>
		<stop  offset="1" style="stop-color:#E0E0E0"/>
	</linearGradient>
	<path class="st28" d="M397.9,709.9c-0.3,1.6-0.6,3.2-0.9,4.8c-0.2,0.9,0,2-0.4,2.7s-1.4,1-2.3,1.4c0.1,0.3,0.3,0.7,0.4,1.1
		c0.3,0.8,0.1,1.6-0.5,2.2c-0.7,0.5-1.6,0.4-2.2-0.2c-1.4-1.3-2.4-3-2.8-4.8c-0.5-3.3-0.8-6.6-0.9-9.9v-0.1c1.4,0.4,2.7,0.8,4.1,1.2
		c-0.1,2.2,0.1,4.4,0.5,6.6c0.1,0.4,0.2,0.7,0.5,1c0-0.3,0.1-0.6,0.1-0.9c0.2-2,0.5-4.1,1-6.1l0,0
		C395.6,709.2,396.7,709.6,397.9,709.9z"/>
	
		<linearGradient id="SVGID_16_" gradientUnits="userSpaceOnUse" x1="442.28" y1="345.9641" x2="448.26" y2="345.9641" gradientTransform="matrix(1 0 0 1 -43.08 369.09)">
		<stop  offset="0" style="stop-color:#F2F2F2"/>
		<stop  offset="1" style="stop-color:#E0E0E0"/>
	</linearGradient>
	<path class="st29" d="M405.2,717.9c0.1,0.7-0.2,1.4-0.9,1.7c-0.6,0.4-1.5,0.2-1.9-0.4c-0.8-1.1-1.5-2.3-2-3.5
		c-0.5-1.8-0.9-3.6-1.2-5.4c1.4,0.4,2.8,0.8,4.2,1.2l0,0c0.3,1.6,0.8,3.3,1.4,4.8C405,716.8,405.1,717.4,405.2,717.9z"/>
	
		<linearGradient id="SVGID_17_" gradientUnits="userSpaceOnUse" x1="448.52" y1="346.864" x2="456.0377" y2="346.864" gradientTransform="matrix(1 0 0 1 -43.08 369.09)">
		<stop  offset="0" style="stop-color:#F2F2F2"/>
		<stop  offset="1" style="stop-color:#E0E0E0"/>
	</linearGradient>
	<path class="st30" d="M412.2,719.6c-0.6,0.4-1.5,0.2-1.9-0.4c-0.5-0.7-1-1.5-1.3-2.4c-0.1-0.6-0.7-1.1-1.4-1
		c-0.7,0-1.4-0.1-2.2-0.1c0-1.2,0.1-2.4,0.2-3.6l0,0c2,0.6,4.1,1.1,6.2,1.7l0,0c0.2,1.1,0.5,2.2,0.8,3.3c0.1,0.3,0.1,0.5,0.2,0.8
		C413.1,718.6,412.8,719.3,412.2,719.6z"/>
	
		<linearGradient id="SVGID_18_" gradientUnits="userSpaceOnUse" x1="458.2" y1="347.21" x2="462.1401" y2="347.21" gradientTransform="matrix(1 0 0 1 -43.08 369.09)">
		<stop  offset="0" style="stop-color:#F2F2F2"/>
		<stop  offset="1" style="stop-color:#E0E0E0"/>
	</linearGradient>
	<path class="st31" d="M419,717c0-0.5-0.1-0.9-0.1-1.4l-1.4-0.4l-2.4-0.6c0.1,0.6,0.2,1.2,0.3,1.8c0.1,0.3,0.3,0.8,0.5,0.9
		c1,0.3,2,0.5,3.1,0.7C419.1,717.7,419.1,717.3,419,717z"/>
	
		<linearGradient id="SVGID_19_" gradientUnits="userSpaceOnUse" x1="475.78" y1="350.11" x2="475.78" y2="350.11" gradientTransform="matrix(1 0 0 1 -43.08 369.09)">
		<stop  offset="0" style="stop-color:#F2F2F2"/>
		<stop  offset="1" style="stop-color:#E0E0E0"/>
	</linearGradient>
	<path class="st32" d="M432.7,719.2L432.7,719.2L432.7,719.2z"/>
	
		<linearGradient id="SVGID_20_" gradientUnits="userSpaceOnUse" x1="509.28" y1="318.71" x2="509.28" y2="318.71" gradientTransform="matrix(1 0 0 1 -43.08 369.09)">
		<stop  offset="0" style="stop-color:#F2F2F2"/>
		<stop  offset="1" style="stop-color:#E0E0E0"/>
	</linearGradient>
	<path class="st33" d="M466.2,687.8L466.2,687.8L466.2,687.8L466.2,687.8z"/>
	
		<linearGradient id="SVGID_21_" gradientUnits="userSpaceOnUse" x1="514.71" y1="346.86" x2="514.82" y2="346.86" gradientTransform="matrix(1 0 0 1 -43.08 369.09)">
		<stop  offset="0" style="stop-color:#F2F2F2"/>
		<stop  offset="1" style="stop-color:#E0E0E0"/>
	</linearGradient>
	<path class="st34" d="M471.7,715.8c0,0.1-0.1,0.2-0.1,0.3l0,0L471.7,715.8z"/>
	
		<linearGradient id="SVGID_22_" gradientUnits="userSpaceOnUse" x1="563.98" y1="340.6097" x2="589.68" y2="340.6097" gradientTransform="matrix(1 0 0 1 -43.08 369.09)">
		<stop  offset="0" style="stop-color:#F2F2F2"/>
		<stop  offset="1" style="stop-color:#E0E0E0"/>
	</linearGradient>
	<path class="st35" d="M546.6,708.8c0,2.9-1.7,5.4-3.9,7.6c-1.3,1.2-2.6,2.3-4.1,3.3c-0.6,0.4-1.1,0.7-1.7,1.1l-0.9,0.5
		c-0.5,0.3-1,0.6-1.5,0.8c-0.2,0.1-0.4,0.2-0.7,0.3l0,0l-0.3,0.2l-0.3,0.2c-0.1,0-0.1,0-0.2,0.1h0l0,0l0,0c-0.1,0-0.1,0.1-0.2,0.1
		h-0.1l-0.3,0.1l-0.2,0.1h-0.1l-0.2,0.1h0.1l-0.1,0.1h-0.1l0,0l-0.2,0.1l-0.2,0.1c-3.3,1.6-6.9,2.5-10.5,3v-33.8
		c0.9,0.1,1.8,0.3,2.6,0.4s1.7,0.3,2.5,0.5l0.8,0.2c1.3,0.3,2.5,0.6,3.6,1l1.1,0.3h0.1h0.1l0.2,0.1l0.2,0.1l0.2,0.1l0.5,0.2
		c0.5,0.2,1,0.4,1.5,0.6l0.3,0.1l0.3,0.1c0.5,0.2,1.1,0.5,1.6,0.8l0,0l0,0l0,0l0.2,0.1l0.1,0.1l0.4,0.2c0.8,0.4,1.5,0.9,2.3,1.3
		l0.5,0.3h0.1c0.2,0.2,0.4,0.3,0.6,0.5c0.4,0.3,0.7,0.5,1.1,0.8c0.2,0.1,0.3,0.3,0.5,0.4l0,0l0.5,0.5c0.2,0.2,0.3,0.3,0.5,0.5
		l0.4,0.4l0.1,0.1c0.2,0.2,0.3,0.3,0.4,0.5s0.3,0.4,0.4,0.5s0.2,0.3,0.3,0.5s0.2,0.4,0.3,0.6c0.2,0.4,0.4,0.8,0.6,1.2
		c0.1,0.2,0.1,0.4,0.2,0.6v0.1c0,0.2,0.1,0.3,0.1,0.5s0,0.1,0,0.2v0.2v0.1c0,0.1,0,0.1,0,0.2c0,0.2,0,0.3,0,0.5
		S546.6,708.6,546.6,708.8z"/>
	
		<linearGradient id="SVGID_23_" gradientUnits="userSpaceOnUse" x1="564" y1="355.96" x2="574.75" y2="355.96" gradientTransform="matrix(1 0 0 1 -43.08 369.09)">
		<stop  offset="0" style="stop-color:#F2F2F2"/>
		<stop  offset="1" style="stop-color:#E0E0E0"/>
	</linearGradient>
	<path class="st36" d="M531.7,723.6L531.7,723.6l-0.3,0.2c-3.3,1.5-6.8,2.4-10.4,2.7l0,0c3.6-0.3,7.1-1.3,10.4-2.7l0.2-0.1
		L531.7,723.6L531.7,723.6z"/>
	
		<linearGradient id="SVGID_24_" gradientUnits="userSpaceOnUse" x1="574.82" y1="354.41" x2="575.01" y2="354.41" gradientTransform="matrix(1 0 0 1 -43.08 369.09)">
		<stop  offset="0" style="stop-color:#F2F2F2"/>
		<stop  offset="1" style="stop-color:#E0E0E0"/>
	</linearGradient>
	<path class="st37" d="M531.9,723.5L531.9,723.5h-0.2H531.9L531.9,723.5z"/>
	
		<linearGradient id="SVGID_25_" gradientUnits="userSpaceOnUse" x1="575.0101" y1="354.2599" x2="575.27" y2="354.2599" gradientTransform="matrix(1 0 0 1 -43.08 369.09)">
		<stop  offset="0" style="stop-color:#F2F2F2"/>
		<stop  offset="1" style="stop-color:#E0E0E0"/>
	</linearGradient>
	<path class="st38" d="M532.2,723.3C532.2,723.3,532.1,723.3,532.2,723.3c-0.2,0-0.2,0.1-0.3,0.1L532.2,723.3L532.2,723.3z"/>
	
		<linearGradient id="SVGID_26_" gradientUnits="userSpaceOnUse" x1="575.42" y1="354.0599" x2="575.76" y2="354.0599" gradientTransform="matrix(1 0 0 1 -43.08 369.09)">
		<stop  offset="0" style="stop-color:#F2F2F2"/>
		<stop  offset="1" style="stop-color:#E0E0E0"/>
	</linearGradient>
	<path class="st39" d="M532.7,723.1L532.7,723.1l-0.3,0.1L532.7,723.1L532.7,723.1z"/>
	
		<linearGradient id="SVGID_27_" gradientUnits="userSpaceOnUse" x1="575.76" y1="353.96" x2="576" y2="353.96" gradientTransform="matrix(1 0 0 1 -43.08 369.09)">
		<stop  offset="0" style="stop-color:#F2F2F2"/>
		<stop  offset="1" style="stop-color:#E0E0E0"/>
	</linearGradient>
	<path class="st40" d="M532.9,723L532.9,723l-0.2,0.1C532.8,723,532.9,723,532.9,723L532.9,723z"/>
	
		<linearGradient id="SVGID_28_" gradientUnits="userSpaceOnUse" x1="576.1" y1="353.76" x2="576.56" y2="353.76" gradientTransform="matrix(1 0 0 1 -43.08 369.09)">
		<stop  offset="0" style="stop-color:#F2F2F2"/>
		<stop  offset="1" style="stop-color:#E0E0E0"/>
	</linearGradient>
	<path class="st41" d="M533.5,722.7l-0.3,0.2L533,723c0,0,0.1-0.1,0.2-0.1L533.5,722.7z"/>
	
		<linearGradient id="SVGID_29_" gradientUnits="userSpaceOnUse" x1="576.56" y1="353.51" x2="576.91" y2="353.51" gradientTransform="matrix(1 0 0 1 -43.08 369.09)">
		<stop  offset="0" style="stop-color:#F2F2F2"/>
		<stop  offset="1" style="stop-color:#E0E0E0"/>
	</linearGradient>
	<path class="st42" d="M533.8,722.5L533.8,722.5l-0.3,0.2L533.8,722.5L533.8,722.5z"/>
	
		<linearGradient id="SVGID_30_" gradientUnits="userSpaceOnUse" x1="579.64" y1="328.16" x2="579.81" y2="328.16" gradientTransform="matrix(1 0 0 1 -43.08 369.09)">
		<stop  offset="0" style="stop-color:#F2F2F2"/>
		<stop  offset="1" style="stop-color:#E0E0E0"/>
	</linearGradient>
	<path class="st43" d="M536.7,697.3l-0.2-0.1l0,0L536.7,697.3z"/>
	
		<linearGradient id="SVGID_31_" gradientUnits="userSpaceOnUse" x1="580.01" y1="351.16" x2="581.71" y2="351.16" gradientTransform="matrix(1 0 0 1 -43.08 369.09)">
		<stop  offset="0" style="stop-color:#F2F2F2"/>
		<stop  offset="1" style="stop-color:#E0E0E0"/>
	</linearGradient>
	<path class="st44" d="M538.6,719.7c-0.6,0.4-1.1,0.8-1.7,1.1C537.5,720.4,538,720.1,538.6,719.7z"/>
	
		<linearGradient id="SVGID_32_" gradientUnits="userSpaceOnUse" x1="539.7026" y1="342.1758" x2="556.57" y2="342.1758" gradientTransform="matrix(1 0 0 1 -43.08 369.09)">
		<stop  offset="0" style="stop-color:#F2F2F2"/>
		<stop  offset="1" style="stop-color:#E0E0E0"/>
	</linearGradient>
	<path class="st45" d="M513.5,709.6c-0.1,3.3-0.4,6.6-0.9,9.9c-0.4,1.9-1.3,3.6-2.8,4.8c-0.6,0.6-1.5,0.7-2.2,0.2s-0.9-1.4-0.5-2.1
		c0.1-0.4,0.3-0.8,0.4-1.1c-0.8-0.5-1.9-0.8-2.3-1.4s-0.2-1.8-0.4-2.7c-0.5-2.4-0.9-4.9-1.4-7.3h-0.3c0,0.2,0,0.4-0.1,0.6
		c-0.5,2.5-0.9,5.2-1.7,7.6c-0.5,1.3-1.1,2.5-2,3.5c-0.4,0.6-1.3,0.7-1.9,0.4s-1-1-0.9-1.7c0.1-0.5,0.2-1.1,0.4-1.6
		c1.2-3.1,1.9-6.5,2-9.8c0-0.9,0-1.9-0.1-2.8c-0.2-1.9-0.5-3.7-0.7-5.5c-0.1-0.8,0-1.5,0.9-1.8c0.8-0.3,1.6,0.1,1.9,0.8
		c0.4,0.7,0.8,1.4,1.2,2.2c1.2-0.6,1.5,0.3,2,1.2c0.7,1.3,1.2,2.6,1.7,3.9c1.2,3.4,2,6.9,2.3,10.5c0,0.3,0.1,0.6,0.1,0.9
		c0.2-0.3,0.4-0.6,0.5-1c0.5-2.8,0.7-5.6,0.4-8.4c-0.1-1-0.2-1.9-0.5-2.9c-0.6-2.1-1.2-4.1-2-6.2c-0.3-0.6-0.1-1.4,0.4-1.8
		c0.6-0.4,1.3-0.4,1.8,0.1c0.5,0.4,1,0.9,1.4,1.5c1.1,1.6,1.8,3.3,2.2,5.2l0.2,0.6C512.9,705.9,513.5,709.4,513.5,709.6z"/>
	
		<linearGradient id="SVGID_33_" gradientUnits="userSpaceOnUse" x1="536.98" y1="332.0322" x2="536.98" y2="332.0322" gradientTransform="matrix(1 0 0 1 -43.08 369.09)">
		<stop  offset="0" style="stop-color:#F2F2F2"/>
		<stop  offset="1" style="stop-color:#E0E0E0"/>
	</linearGradient>
	<path class="st46" d="M493.9,701.1L493.9,701.1C493.9,701.2,493.9,701.1,493.9,701.1L493.9,701.1z"/>
	
		<linearGradient id="SVGID_34_" gradientUnits="userSpaceOnUse" x1="531.95" y1="341.514" x2="539.46" y2="341.514" gradientTransform="matrix(1 0 0 1 -43.08 369.09)">
		<stop  offset="0" style="stop-color:#F2F2F2"/>
		<stop  offset="1" style="stop-color:#E0E0E0"/>
	</linearGradient>
	<path class="st47" d="M496.4,718.1c-0.8,0-1.5,0.1-2.2,0.1c-0.7-0.1-1.3,0.4-1.4,1c-0.3,0.8-0.8,1.6-1.3,2.4
		c-0.4,0.6-1.2,0.8-1.9,0.4c-0.6-0.3-0.9-1-0.7-1.7c0-0.3,0.1-0.5,0.2-0.8c0.8-2.7,1.3-5.5,1.4-8.3c0.1-2.3-0.1-4.7-0.7-6.9
		c-0.3-1.2-0.4-2.5-0.4-3.8c0-0.8,0.6-1.4,1.4-1.5c0.4,0,0.7,0.1,1,0.4c0.7,0.5,1.3,1.1,2,1.7l-0.7,0.2c0.9,2.8,1.7,5.7,2.3,8.6
		C496,712.6,496.3,715.3,496.4,718.1z"/>
	
		<linearGradient id="SVGID_35_" gradientUnits="userSpaceOnUse" x1="525.3" y1="341.06" x2="530.12" y2="341.06" gradientTransform="matrix(1 0 0 1 -43.08 369.09)">
		<stop  offset="0" style="stop-color:#F2F2F2"/>
		<stop  offset="1" style="stop-color:#E0E0E0"/>
	</linearGradient>
	<path class="st48" d="M487,712.1c0,2.2-0.2,4.5-0.7,6.7c-0.1,0.3-0.3,0.8-0.5,0.9c-1,0.3-2,0.5-3.1,0.7c0-0.3,0-0.7,0-1
		c0.2-2.1,0.3-4.2,0.5-6.3c0-0.4,0.1-0.8,0.1-1.3c0.1-1-1-10.3-1.1-11.9c1.2,0.3,2.1,0.6,3,0.9c0.3,0.2,0.5,0.4,0.5,0.7
		c0.3,1.4,0.5,2.8,0.7,4.1C486.8,707.8,487,710,487,712.1z"/>
	
		<linearGradient id="SVGID_36_" gradientUnits="userSpaceOnUse" x1="469.58" y1="336.46" x2="515.714" y2="336.46" gradientTransform="matrix(1 0 0 1 -43.08 369.09)">
		<stop  offset="0" style="stop-color:#F2F2F2"/>
		<stop  offset="1" style="stop-color:#E0E0E0"/>
	</linearGradient>
	<path class="st49" d="M472.7,709.4c0,0.3,0,0.5,0,0.8c0,0.1,0,0.2,0,0.3s0,0.3,0,0.5l0,0c0,0.1,0,0.1,0,0.2v0.3v0.1l0,0
		c0,0.1,0,0.2,0,0.3s0,0.1,0,0.2c0,0.3-0.1,0.6-0.1,0.9s-0.1,0.7-0.2,1.1s-0.2,0.8-0.3,1.2c0,0.1-0.1,0.2-0.1,0.3l-0.1,0.3l0,0
		c-0.2,0.5-0.3,1-0.5,1.5l0,0c0,0.1-0.1,0.2-0.1,0.3s0,0.1-0.1,0.2c0,0.1,0,0.1-0.1,0.2c-0.2,0.4-0.4,0.9-0.6,1.2l0,0l0,0
		c-0.3,0.6-0.6,1.1-0.9,1.5c0,0.1-0.1,0.2-0.1,0.2l-0.2,0.2l0,0l0,0c-0.1,0.1-0.2,0.2-0.2,0.3l-0.2,0.3c-0.2,0.2-0.3,0.4-0.5,0.5
		l0,0l0,0c-0.1,0.1-0.3,0.3-0.4,0.4l-0.3,0.3l0,0l0,0l-0.4,0.3l0,0l-0.2,0.1c0,0-0.1,0-0.1,0.1h-0.1c-0.1,0.1-0.2,0.1-0.3,0.1h-0.1
		h-0.1h-0.3c-0.1,0-0.2,0-0.3,0H465c-2.3-0.2-4.6-0.5-6.8-0.9h-0.1H458l0,0h-0.1c-0.1,0-0.2,0-0.4,0l-0.4-0.1h-0.4H456
		c-0.3,0-0.6-0.1-0.9-0.1s-0.4,0-0.7-0.1H454h-0.4l-3.7-0.4c-0.4,0-0.7-0.1-1.1-0.1l-0.7-0.1l0,0l-1.9-0.2h-0.1l-2.6-0.5l0,0l0,0
		c0,0.1,0.1,0.1,0.1,0.2l-1-0.2l-0.8-0.2l0,0l-2,0.3c-0.4,0.1-0.9,0.1-1.3,0.2h-0.3l-0.7,0.1h-0.2h-0.1H437h-0.3h-0.8
		c-0.1,0-0.2,0-0.3,0c-0.1,0-0.1,0-0.2-0.1c-0.1,0-0.1,0-0.1,0c-0.3-0.1-0.6-0.3-0.9-0.5l-0.2-0.2l-0.1-0.1l-0.1-0.1l-0.2-0.2
		l-0.1-0.1l-0.3-0.3c-0.1-0.1-0.2-0.2-0.3-0.4c-0.1-0.1-0.3-0.4-0.5-0.6l0,0l0,0c-1.4-0.4-3.1-0.8-6.1-1.5c0,0,0-0.1,0.1-0.1
		c0.9-1.5,2.1-3.2,3.2-5.1c0.4-0.7,0.8-1.4,1.2-2.2c0.1-0.2,0.3-0.5,0.4-0.8s0.2-0.4,0.3-0.7c0.1-0.2,0.3-0.6,0.4-0.9
		c0.5-1.1,0.9-2.3,1.2-3.4c0.4-1.5,0.8-3,1-4.6l0.2-0.9c0-0.3,0.1-0.6,0.1-0.9c0-0.3,0.1-0.6,0.1-0.9c0.1-0.5,0.1-0.9,0.1-1.4
		c0.2-1.6,0.2-3.2,0.3-4.5c0-0.2,0-0.4,0-0.6s0-0.4,0-0.6v-0.1c1,0.6,2.2,1.2,3.9,2l0,0l0,0l7.9,4.3h0.5l0,0l0.2,0.1l0,0
		c0.3,0.2,0.7,0.4,1,0.6l0,0l0.8-0.5c0.1,0,0.1-0.1,0.2-0.1l0,0c1-0.5,1.9-1,2.7-1.5l0.8-0.5c0.5-0.2,0.9-0.5,1.3-0.7l1-0.5l0.8-0.4
		l1.4-0.7l0.7-0.3c0.8-0.4,1.4-0.7,2.1-1.1l0.5-0.2c0.8-0.4,1.5-0.8,2.2-1.1c0.1,0,0.1-0.1,0.2-0.1l0.2-0.1h0.1h0.1l0.5-0.3l0,0
		l0.5-0.3l0.5-0.2l0.3-0.2l0.5-0.2l0,0l0,0l0,0h0.1l0.2-0.1h0.1l0,0l0,0c0,0,0.1,0,0.1-0.1v0.1c0,0.4,0,0.8,0,1.2c0,0.2,0,0.4,0,0.6
		l0,0c0,0.1,0,0.2,0,0.3c0,0.4,0,0.8,0.1,1.3c0.1,2.4,0.4,4.8,0.8,7.1c0,0.2,0.1,0.5,0.1,0.7c0.1,0.2,0.1,0.5,0.1,0.7h0.5
		c0.6,0,1.1-0.1,1.7-0.2l0.1,0.3c0.1,0.2,0.2,0.4,0.3,0.7s0.1,0.3,0.2,0.4c0.1,0.2,0.2,0.5,0.3,0.8c0.1,0.3,0.2,0.5,0.3,0.9
		s0.1,0.4,0.2,0.6c0.2,0.7,0.4,1.4,0.5,2.1c0.1,0.5,0.2,1.1,0.3,1.6l0.1,0.9c0,0.2,0,0.5,0,0.7c0,0.1,0,0.2,0,0.2
		C472.7,708.9,472.7,709.1,472.7,709.4z"/>
	
		<linearGradient id="SVGID_37_" gradientUnits="userSpaceOnUse" x1="482.17" y1="325.16" x2="490.61" y2="325.16" gradientTransform="matrix(1 0 0 1 -43.08 369.09)">
		<stop  offset="0" style="stop-color:#F2F2F2"/>
		<stop  offset="1" style="stop-color:#E0E0E0"/>
	</linearGradient>
	<path class="st50" d="M447.5,696.4H447l-7.9-4.3l0.4,0.2h0.1l0.4,0.2l1.8,0.9c0.2,0.1,0.5,0.2,0.7,0.4l0.4,0.2l0.4,0.2l0.6,0.3
		l0.6,0.3l0.4,0.2l0.2,0.1l0.2,0.1l0.2,0.1L447.5,696.4z"/>
	
		<linearGradient id="SVGID_38_" gradientUnits="userSpaceOnUse" x1="490.78" y1="327.31" x2="490.78" y2="327.31" gradientTransform="matrix(1 0 0 1 -43.08 369.09)">
		<stop  offset="0" style="stop-color:#F2F2F2"/>
		<stop  offset="1" style="stop-color:#E0E0E0"/>
	</linearGradient>
	<path class="st51" d="M447.7,696.4L447.7,696.4z"/>
	
		<linearGradient id="SVGID_39_" gradientUnits="userSpaceOnUse" x1="486.68" y1="352.31" x2="486.68" y2="352.31" gradientTransform="matrix(1 0 0 1 -43.08 369.09)">
		<stop  offset="0" style="stop-color:#F2F2F2"/>
		<stop  offset="1" style="stop-color:#E0E0E0"/>
	</linearGradient>
	<path class="st52" d="M443.6,721.4L443.6,721.4L443.6,721.4L443.6,721.4z"/>
	
		<linearGradient id="SVGID_40_" gradientUnits="userSpaceOnUse" x1="513.26" y1="330.36" x2="513.4" y2="330.36" gradientTransform="matrix(1 0 0 1 -43.08 369.09)">
		<stop  offset="0" style="stop-color:#F2F2F2"/>
		<stop  offset="1" style="stop-color:#E0E0E0"/>
	</linearGradient>
	<path class="st53" d="M470.3,699.6l-0.1-0.3l0,0C470.2,699.4,470.3,699.5,470.3,699.6z"/>
	
		<linearGradient id="SVGID_41_" gradientUnits="userSpaceOnUse" x1="514.76" y1="334.96" x2="515.31" y2="334.96" gradientTransform="matrix(1 0 0 1 -43.08 369.09)">
		<stop  offset="0" style="stop-color:#F2F2F2"/>
		<stop  offset="1" style="stop-color:#E0E0E0"/>
	</linearGradient>
	<path class="st54" d="M472.2,705.1c-0.2-0.8-0.3-1.5-0.5-2.1C471.9,703.7,472.1,704.4,472.2,705.1z"/>
	<path class="st55" d="M446.2,721.9l-1-0.1c-0.2,0-0.4-0.1-0.6-0.1l-0.8-0.1c0-0.1-0.1-0.1-0.1-0.2l0,0l0,0L446.2,721.9z"/>
	<path class="st56" d="M436.2,721.9c-0.1,0-0.2,0-0.3,0c-0.1,0-0.1,0-0.2-0.1c-0.1,0-0.1,0-0.1,0c-0.3-0.1-0.6-0.3-0.9-0.5l-0.2-0.2
		l-0.1-0.1l-0.1-0.1l-0.2-0.2l-0.1-0.1l-0.3-0.3c-0.1-0.1-0.2-0.2-0.3-0.4c-0.1-0.1-0.3-0.4-0.5-0.6l0,0l0,0
		c-1.4-0.4-3.1-0.8-6.1-1.5c0,0,0-0.1,0.1-0.1c-2.6-0.6-5.1-1.2-7.7-1.9c0,0.5,0.1,0.9,0.1,1.4c0,0.3,0,0.7,0,1
		c-1.1-0.2-2.1-0.4-3.1-0.7c-0.2-0.1-0.4-0.5-0.5-0.9c-0.1-0.6-0.2-1.2-0.3-1.8l0,0l-3.2-0.9c0.2,1.1,0.5,2.2,0.8,3.3
		c0.1,0.3,0.1,0.5,0.2,0.8c0.2,0.7-0.1,1.4-0.7,1.7c-0.6,0.4-1.5,0.2-1.9-0.4c-0.5-0.7-1-1.5-1.3-2.4c-0.1-0.6-0.7-1.1-1.4-1
		c-0.7,0-1.4-0.1-2.2-0.1c0-1.2,0.1-2.4,0.2-3.6l-2.3-0.6c0.3,1.6,0.8,3.3,1.4,4.8c0.2,0.5,0.3,1.1,0.4,1.6c0.1,0.7-0.2,1.4-0.9,1.7
		c-0.6,0.4-1.5,0.2-1.9-0.4c-0.8-1.1-1.5-2.3-2-3.5c-0.5-1.8-0.9-3.6-1.2-5.4l0,0c-0.5-0.1-0.9-0.2-1.3-0.4
		c-0.3,1.6-0.6,3.2-0.9,4.8c-0.2,0.9,0,2-0.4,2.7s-1.4,1-2.3,1.4c0.1,0.3,0.3,0.7,0.4,1.1c0.3,0.8,0.1,1.6-0.5,2.2
		c-0.7,0.5-1.6,0.4-2.2-0.2c-1.4-1.3-2.4-3-2.8-4.8c-0.5-3.3-0.8-6.6-0.9-9.9v-0.1c-2.5-0.8-5-1.5-7.5-2.3v19.4c1,0.1,2,0.3,3.2,0.4
		l1.2,0.1l0,0c3.2,0.3,7.1,0.4,11.9,0.4c13.3,0,26.6-1,39.7-3L436.2,721.9z M394.4,708.9c-0.7-0.2-1.3-0.4-2-0.6
		c-0.1,2.2,0.1,4.4,0.5,6.6c0.1,0.4,0.2,0.7,0.5,1c0-0.3,0.1-0.6,0.1-0.9C393.7,713,394,710.9,394.4,708.9L394.4,708.9z"/>
	<path class="st56" d="M519.4,692.5c-0.5-0.1-1.1-0.1-1.6-0.2h-0.2c-0.7-0.1-1.3-0.1-2-0.2h-0.3c-1.5-0.1-3-0.1-4.6-0.1
		c-0.4,0-0.7,0-1.1,0c-1.5,0.1-3,0.2-4.4,0.3l-1.1,0.1c-0.7,0.1-1.3,0.2-2,0.3l-1,0.2l-1.1,0.2l-2,0.4c-4.7,1.1-9.4,2.5-16.2,3.9
		c-1.5,0.3-3.3,0.6-5.3,1l-1.1,0.2l-0.8,0.1l-1.8,0.2l-0.9,0.1l-1.8,0.2c0,0.1,0.1,0.2,0.1,0.3s0.2,0.4,0.3,0.7s0.1,0.3,0.2,0.4
		c0.1,0.2,0.2,0.5,0.3,0.8c0.1,0.3,0.2,0.5,0.3,0.9s0.1,0.4,0.2,0.6c0.2,0.7,0.4,1.4,0.5,2.1c0.1,0.5,0.2,1.1,0.3,1.6l0.1,0.9
		c0,0.2,0,0.5,0,0.7c0,0.1,0,0.2,0,0.2c0,0.3,0,0.6,0,0.8s0,0.5,0,0.8c0,0.1,0,0.2,0,0.3s0,0.3,0,0.5l0,0c0,0.1,0,0.1,0,0.2v0.3v0.1
		l0,0c0,0.1,0,0.2,0,0.3s0,0.1,0,0.2c0,0.3-0.1,0.6-0.1,0.9s-0.1,0.7-0.2,1.1s-0.2,0.8-0.3,1.2c0,0.1-0.1,0.2-0.1,0.3
		s-0.1,0.2-0.1,0.3c-0.2,0.5-0.3,1-0.5,1.5l0,0c0,0.1-0.1,0.2-0.1,0.3s0,0.1-0.1,0.2c0,0.1,0,0.1-0.1,0.2c-0.2,0.4-0.4,0.9-0.6,1.2
		l0,0l0,0c-0.3,0.6-0.6,1.2-1,1.8l-0.2,0.2l0,0c-0.1,0.1-0.2,0.2-0.2,0.3l-0.2,0.3c-0.2,0.2-0.3,0.4-0.5,0.5l0,0l0,0
		c-0.1,0.1-0.3,0.3-0.4,0.4c-0.1,0.1-0.2,0.2-0.3,0.3c-0.1,0.1-0.3,0.2-0.4,0.3l0,0l-0.2,0.1c0,0-0.1,0-0.1,0.1h-0.1
		c-0.1,0.1-0.2,0.1-0.3,0.1h-0.1h-0.1h-0.3h-0.3h-0.8c2.9,0.4,5.7,0.8,8.3,1.1l1.6,0.2c6.9,0.8,12.8,1.2,17.6,1.5l1.5,0.1l1.4,0.1
		h0.3h1.7c0.9,0,1.8,0.1,2.6,0.1h3.8h1c1.5,0,2.8,0,4.2,0h1l1.8-0.1h0.9l2.2-0.1l1.3-0.1h0.6c1.2-0.1,2.4-0.2,3.4-0.3l1-0.1v-33.6
		C520.4,692.6,519.9,692.6,519.4,692.5z M486.4,718.8c-0.1,0.3-0.3,0.8-0.5,0.9c-1,0.3-2,0.5-3.1,0.7c0-0.3,0-0.7,0-1
		c0.2-2.1,0.3-4.2,0.5-6.3c0-0.4,0.1-0.8,0.1-1.3c0.1-1-1-10.3-1.1-11.9c1.2,0.3,2.1,0.6,3,0.9c0.3,0.2,0.5,0.4,0.5,0.7
		c0.3,1.4,0.5,2.8,0.7,4.1c0.3,2.1,0.5,4.3,0.5,6.4C487.1,714.4,486.9,716.6,486.4,718.8L486.4,718.8z M494.2,718.2
		c-0.7-0.1-1.3,0.4-1.4,1c-0.3,0.8-0.8,1.6-1.3,2.4c-0.4,0.6-1.2,0.8-1.9,0.4c-0.6-0.3-0.9-1-0.7-1.7c0-0.3,0.1-0.5,0.2-0.8
		c0.8-2.7,1.3-5.5,1.4-8.3c0.1-2.3-0.1-4.7-0.7-6.9c-0.3-1.2-0.4-2.5-0.4-3.8c0-0.8,0.6-1.4,1.4-1.5c0.4,0,0.7,0.1,1,0.4
		c0.7,0.5,1.3,1.1,2,1.7h0.1v0.1c0,0,0,0-0.1-0.1l-0.7,0.2c0.9,2.8,1.7,5.7,2.3,8.6c0.6,2.7,0.9,5.5,1,8.2
		C495.6,718.2,494.9,718.2,494.2,718.2L494.2,718.2z M512.6,719.5c-0.4,1.9-1.3,3.6-2.8,4.8c-0.6,0.6-1.5,0.7-2.2,0.2
		s-0.9-1.4-0.5-2.1c0.1-0.4,0.3-0.8,0.4-1.1c-0.8-0.5-1.9-0.8-2.3-1.4s-0.2-1.8-0.4-2.7c-0.5-2.4-0.9-4.9-1.4-7.3h-0.3
		c0,0.2,0,0.4-0.1,0.6c-0.5,2.5-0.9,5.2-1.7,7.6c-0.5,1.3-1.1,2.5-2,3.5c-0.4,0.6-1.3,0.7-1.9,0.4s-1-1-0.9-1.7
		c0.1-0.5,0.2-1.1,0.4-1.6c1.2-3.1,1.9-6.5,2-9.8c0-0.9,0-1.9-0.1-2.8c-0.2-1.9-0.5-3.7-0.7-5.5c-0.1-0.8,0-1.5,0.9-1.8
		c0.8-0.3,1.6,0.1,1.9,0.8c0.4,0.7,0.8,1.4,1.2,2.2c1.2-0.6,1.5,0.3,2,1.2c0.7,1.3,1.2,2.6,1.7,3.9c1.2,3.4,2,6.9,2.3,10.5
		c0,0.3,0.1,0.6,0.1,0.9c0.2-0.3,0.4-0.6,0.5-1c0.5-2.8,0.7-5.6,0.4-8.4c-0.1-1-0.2-1.9-0.5-2.9c-0.6-2.1-1.2-4.1-2-6.2
		c-0.3-0.6-0.1-1.4,0.4-1.8c0.6-0.4,1.3-0.4,1.8,0.1c0.5,0.4,1,0.9,1.4,1.5c1.1,1.6,1.8,3.3,2.2,5.2l0.2,0.6c0.1,0.3,0.7,3.9,0.7,4
		C513.4,712.9,513.1,716.2,512.6,719.5L512.6,719.5z"/>
	<path class="st56" d="M483.5,357.2"/>
	<path class="st56" d="M487.1,322.1c0.1-0.4,0.1-0.4,0.2-0.7l6.1-0.4l-4.7-8.6c0.7-0.8,2.4-2,2.2-2.5c-0.7-1.6-2-3-3.2-4.4l1.9-1.2
		c-2.4-1.6-4.7-3.1-6.9-4.6c-3-2-2.9-3.1,0.4-4.7l1.2-0.5c-9.2-4.7-19.6-6.5-29.8-5.3l3.9-5c-9.8-1.3-19.1-1.8-28.2,1.4
		c-9.7,3.4-18.3,11.7-14.6,23.6c-6.4,2.3-8.8,5.5-8.9,12.2c-0.1,1.8,0,3.6,0.2,5.3c0.1,1,0.2,2,0.4,3l6.1,24.1
		c2.8-9.8,5.6-17.4,8.5-27.9c4.2,10.6,13.4,13.4,22.6,16.4l-4.8-8.5c0.3-0.2,0.2-0.2,0.5-0.4c6,4.6,12.8,8,20,10l-5.1-5.3l17.3,7.1
		c-2-5.5-3.7-10.3-5.5-15.5c3.9,2.5,7,4.8,10.5,6.5c1.5,0.6,2.5,2,2.7,3.6c0.8,5.4,1.8,10.7,2.8,16c0.2,0.5,0.4,0.9,0.7,1.3
		c-0.6-1.9,0.2-3.9,2.1-4.8c2.8-1.1,3.1-3.2,3.4-5.6c0.3-2.1,0.8-4.1,1-6.2c0.3-2.4,0.8-4.7,1.2-7
		C492.1,329.1,491.2,325.1,487.1,322.1z"/>
	<path class="st56" d="M443.2,355.8c-1.7-0.1-3.4-0.4-5.1-0.8c-2.5-0.5-5.1-0.9-7.7-1.1c-2.2-0.2-4.4-0.1-6.6,0.2
		c-0.2,0-0.3,0.1-0.4-0.1s0-0.4,0.1-0.5c1.4-1.3,3.2-2.2,5.1-2.5c2.3-0.2,4.5-0.1,6.8,0.1c1.5,0,3,0.2,4.5,0.4
		c1.7,0.3,3.1,1.4,3.8,2.9C444.1,355.1,443.7,355.8,443.2,355.8z"/>
	<path class="st56" d="M470,350.8c2.5-0.1,5,0.9,6.8,2.6c0.2,0.1,0.3,0.3,0.2,0.5s-0.3,0.1-0.5,0.1c-3.4-0.4-6.8-0.3-10.2,0.2
		c-2.6,0.4-5.2,1.1-7.8,1.4c-0.2,0-0.3,0-0.5,0c-0.5,0-1.1,0.1-1.3-0.5c-0.3-0.5,0-1,0.3-1.4c1-1.5,2.6-2.5,4.4-2.6
		c2.3-0.2,4.5-0.4,6.8-0.4C468.8,350.9,469.4,350.8,470,350.8z"/>
	<path class="st56" d="M425.5,362.5c5.2-4.1,11.8-2.5,15.3,3.1C435.8,363.8,430.9,362.1,425.5,362.5z"/>
	<path class="st56" d="M475.1,362.5c-5.2-4.1-11.8-2.5-15.3,3.1C464.9,363.8,469.7,362.1,475.1,362.5z"/>
	<path class="st57" d="M463,392.3c-0.1,0.5-0.5,0.7-0.9,1c-2,1.6-4.1,3.1-6.3,4.4c-2.3,1.4-4.8,2.2-7.4,2.6c-3,0.4-6-0.9-7.6-3.5
		c-1.1-1.8-1.9-3.8-2.3-5.9c-0.1-0.5,0-0.7,0.5-0.5c2.4,0.8,4.8,1.4,7.3,1.9c2.6,0.6,5.3,0.9,8,1c2.5,0.1,4.9-0.1,7.3-0.6
		C462.1,392.5,462.5,392.4,463,392.3L463,392.3z"/>
	
		<linearGradient id="SVGID_42_" gradientUnits="userSpaceOnUse" x1="509.88" y1="283.0601" x2="681.1676" y2="283.0601" gradientTransform="matrix(1 0 0 1 -43.08 369.09)">
		<stop  offset="0" style="stop-color:#6B418C"/>
		<stop  offset="1" style="stop-color:#5A3473"/>
	</linearGradient>
	<path class="st58" d="M626.8,656.1c-21.2,13.9-44.1,25-68.2,32.9c-5.2,2-10.5,4-16,6l0,0c-1.4-0.7-2.9-1.3-4.3-1.9l-0.8-0.3
		c-0.6-0.2-1.2-0.4-1.8-0.5c-2.1-0.6-4.4-1.2-7-1.7c-0.4-0.1-0.7-0.2-1.1-0.2l-1-0.2c-0.3,0-0.7-0.1-1.1-0.2s-0.7-0.1-1.1-0.2
		c-0.7-0.1-1.5-0.2-2.2-0.2l-1.2-0.1l-1-0.1h-0.1c-0.5,0-1.1,0-1.6-0.1h-0.4c-0.6,0-1.1,0-1.7,0c-0.8,0-1.6,0-2.4,0
		s-1.8,0.1-2.7,0.2c-0.3,0-0.6,0-0.9,0.1h-0.5c-0.8,0.1-1.5,0.2-2.2,0.3l-1.3,0.2c-0.8,0.1-1.5,0.3-2.3,0.4c-0.3,0.1-0.6,0.1-1,0.2
		h-0.2c-0.6,0.1-1.1,0.2-1.7,0.4c-0.1,0-0.1,0-0.2,0c-0.7,0.2-1.3,0.3-2,0.5l-2,0.5l-1.8,0.5l-2.8,0.8l-1,0.3l-0.9,0.2l-0.8,0.2
		l-0.7,0.2l-1.4,0.3l-1.5,0.3c-0.5,0.1-1,0.2-1.6,0.3l-0.8,0.2l-1.6,0.3l0,0l-1.7,0.3c-1,0.2-2,0.3-3,0.5L476,697
		c-2.5,0.4-5.3,0.8-8.3,1c-0.4-2.4-0.7-4.7-0.8-7.1c0-0.4-0.1-0.8-0.1-1.3c0-0.1,0-0.2,0-0.3l0,0c0-0.2,0-0.4,0-0.6
		c0-0.4,0-0.8,0-1.2c5.6-3.2,11.2-6.4,16.8-9.6c3.8-2.2,7.5-4.4,11.3-6.6c1.4-0.8,2.8-1.7,4.3-2.5l4.3-2.5l8.6-5.1
		c4.3-2.6,8.5-5.1,12.7-7.7c2.1-1.3,4.2-2.6,6.3-3.8c3.5-2.1,7-4.3,10.4-6.4c1.4-0.8,2.8-1.7,4.1-2.6s2.7-1.7,4.1-2.6
		c5.4-3.4,10.8-6.8,16.2-10.3c2.7-1.7,5.3-3.4,8-5.1s5.1-3.3,7.6-4.9c1.8-1.2,3.6-2.4,5.4-3.5l2.7-1.8l2.7-1.8l0.1-0.1l0.1-0.1
		l0.2-0.1l0.5-0.2c0.5-0.2,1.1-0.5,1.6-0.8c0.4-0.2,0.8-0.3,1.2-0.5s1-0.4,1.5-0.6c0.2-0.1,0.5-0.2,0.7-0.2c1-0.3,2.1-0.7,3.3-1
		l0.9-0.2l0,0l0.3-0.1c0.5-0.1,1-0.2,1.6-0.3l1.5-0.2h0.2h0.4c0.2,0,0.3,0.1,0.5,0.1s0.4,0.1,0.6,0.2l0.6,0.2c0.1,0,0.3,0.1,0.4,0.2
		l0.4,0.2l0.5,0.2c0.1,0.1,0.2,0.1,0.3,0.2l0.1,0.1c4,3.9,9,6.2,10.8,6.5c2.7,0.3,8.3,0.5,8.3,0.5l2.5,0.2c2,2.1,3.6,4.6,4.7,7.3
		C640.7,633.5,637.2,647.3,626.8,656.1z"/>
	
		<linearGradient id="SVGID_43_" gradientUnits="userSpaceOnUse" x1="306.8453" y1="294.01" x2="478.365" y2="294.01" gradientTransform="matrix(1 0 0 1 -43.08 369.09)">
		<stop  offset="0" style="stop-color:#6B418C"/>
		<stop  offset="1" style="stop-color:#5A3473"/>
	</linearGradient>
	<path class="st59" d="M435.1,690.1v0.6c0,0.2,0,0.4,0,0.6c-0.1,1.3-0.2,2.9-0.3,4.5c-0.1,0.4-0.1,0.9-0.2,1.4
		c0,0.3-0.1,0.6-0.1,0.9s-0.1,0.6-0.1,0.9l-0.1,0.9c-0.2,1.5-0.6,3.1-1,4.6c-0.3,1.2-0.7,2.3-1.2,3.4c-0.1,0.3-0.2,0.6-0.4,0.9
		s-0.2,0.5-0.3,0.7s-0.2,0.5-0.4,0.8c-0.4,0.8-0.8,1.5-1.2,2.2c-1.1,1.9-2.2,3.6-3.2,5.1c-2.6-0.6-5.1-1.2-7.7-1.9l-1.4-0.4
		l-2.4-0.6l0,0l-3.3-0.8l0,0c-2.1-0.6-4.1-1.1-6.2-1.7l0,0l-2.3-0.6l0,0c-1.4-0.4-2.8-0.8-4.2-1.2l0,0c-0.5-0.1-0.9-0.2-1.3-0.4
		c-1.1-0.3-2.3-0.7-3.4-1l0,0c-0.7-0.2-1.3-0.4-2-0.6c-1.4-0.4-2.7-0.8-4.1-1.2c-2.5-0.8-5-1.5-7.5-2.3c-7-2.2-13.9-4.5-20.5-6.9
		l0.7-0.6c-0.3,0.2-0.5,0.4-0.8,0.6c-2.1-0.7-4.1-1.5-6.1-2.2c-3.8-1.4-7.5-2.8-11.1-4.2c-24.1-7.9-47.1-19-68.3-32.9
		c-10.3-8.8-13.8-22.7-9-33.8c1.1-2.6,2.7-5,4.6-7.1c2.6-0.1,5.3-0.1,8-0.4c1.9-0.2,7.1-2.7,11.2-6.8c0.6-0.6,1.3-1.3,1.8-2
		c2.1,0.1,4.2,0.3,6.3,0.7c0.5,0.1,1,0.2,1.6,0.3c3.6,0.8,7.2,2.1,10.5,3.8c25.3,16.8,52,33.7,80.1,50.5
		c11.1,6.7,22.2,13.1,33.1,19.5c0.1,0,0.2,0.1,0.2,0.2C427.2,685.7,431.2,687.9,435.1,690.1z"/>
	
		<linearGradient id="SVGID_44_" gradientUnits="userSpaceOnUse" x1="403.46" y1="328.5099" x2="404.21" y2="328.5099" gradientTransform="matrix(1 0 0 1 -43.08 369.09)">
		<stop  offset="0" style="stop-color:#6B418C"/>
		<stop  offset="1" style="stop-color:#5A3473"/>
	</linearGradient>
	<path class="st60" d="M361.1,697.3l-0.7,0.6l0,0C360.6,697.6,360.9,697.4,361.1,697.3z"/>
	
		<linearGradient id="SVGID_45_" gradientUnits="userSpaceOnUse" x1="466.68" y1="174.31" x2="466.68" y2="174.31" gradientTransform="matrix(1 0 0 1 -43.08 369.09)">
		<stop  offset="0" style="stop-color:#3E2759"/>
		<stop  offset="1" style="stop-color:#2E1C40"/>
	</linearGradient>
	<path class="st61" d="M423.6,543.4L423.6,543.4z"/>
	
		<linearGradient id="SVGID_46_" gradientUnits="userSpaceOnUse" x1="456.28" y1="115.21" x2="456.28" y2="115.21" gradientTransform="matrix(1 0 0 1 -43.08 369.09)">
		<stop  offset="0" style="stop-color:#3E2759"/>
		<stop  offset="1" style="stop-color:#2E1C40"/>
	</linearGradient>
	<path class="st62" d="M413.2,484.3L413.2,484.3z"/>
	
		<linearGradient id="SVGID_47_" gradientUnits="userSpaceOnUse" x1="456.28" y1="139.61" x2="525.88" y2="139.61" gradientTransform="matrix(1 0 0 1 -43.08 369.09)">
		<stop  offset="0" style="stop-color:#3E2759"/>
		<stop  offset="1" style="stop-color:#2E1C40"/>
	</linearGradient>
	<path class="st63" d="M475.8,508.7c3.9-0.1,7-3.3,7-7.2v-17.2c0-5.8-4.7-10.4-10.4-10.4l0,0h-48.8c-5.6,0-10.3,4.5-10.4,10.1v49.4
		c0.2,5.5,4.6,9.9,10.1,10.1h49.3c5.6-0.2,10.1-4.8,10.1-10.4V516C482.8,512,479.7,508.8,475.8,508.7z M449,529.3
		c0,5.3-2.8,7.9-8.5,7.9h-8.8c-5.6,0-8.4-2.6-8.4-7.9V521h8.2v7c-0.1,0.7,0.1,1.5,0.5,2.1c0.6,0.4,1.4,0.6,2.2,0.5h3.8
		c1.1,0.4,2.2-0.2,2.6-1.3c0.1-0.4,0.1-0.9,0-1.3v-13.8c0.4-1.1-0.2-2.3-1.3-2.6c-0.4-0.1-0.9-0.1-1.3,0h-6.7c-5.5,0-8.2-2.7-8.2-8
		v-14.9c0-5.3,2.8-7.9,8.4-7.9h8.8c5.6,0,8.4,2.6,8.4,7.9v8.4h-8.2v-7c0.1-0.7-0.1-1.5-0.5-2.1c-0.6-0.4-1.4-0.6-2.2-0.5H434
		c-0.8-0.1-1.5,0.1-2.2,0.5c-0.4,0.6-0.6,1.4-0.5,2.1v12.5c-0.1,0.7,0.1,1.5,0.5,2.1c0.6,0.4,1.4,0.6,2.2,0.5h6.6
		c5.5,0,8.3,2.6,8.3,7.9v16.2H449z M470.7,519.5l-5.7,15.2h-2.6v-20.2h8.3L470.7,519.5L470.7,519.5z M470.7,495.9h-8.3v-9.5h8.3
		V495.9z"/>
	<g id="letter-m_1_">
		
			<linearGradient id="SVGID_48_" gradientUnits="userSpaceOnUse" x1="400.3" y1="444.5" x2="502.9" y2="444.5" gradientTransform="matrix(1 0 0 -1 0 980)">
			<stop  offset="0" style="stop-color:#3E2759"/>
			<stop  offset="1" style="stop-color:#2E1C40"/>
		</linearGradient>
		<circle class="st64" cx="451.6" cy="535.5" r="51.3"/>
		<text transform="matrix(1 0 0 1 429.3867 565.7094)" class="st55 st65 st66"></text>
	</g>
</g>
</svg>
